# Blender 3.6.4
# www.blender.org
mtllib baseboard.mtl
o Plane.004
v -32.533508 -16.907009 -67.104675
v -32.533508 -16.907009 -66.279694
v -32.533508 -17.661137 -66.279694
v -32.533508 -17.661137 -67.104675
v -32.533508 -16.760860 -66.443382
v -32.533508 -16.597176 -66.531075
v -32.533508 -16.445181 -66.595375
v -32.533508 -16.234726 -66.647995
v -32.533508 -16.035965 -66.694756
v -32.533508 -15.936584 -66.700607
v -32.533508 -15.924891 -66.624611
v -32.533508 -15.883970 -66.542763
v -32.533508 -15.813818 -66.472610
v -32.533508 -15.720284 -66.460922
v -32.533508 -15.626748 -66.495995
v -32.533508 -15.562443 -66.571991
v -32.533508 -15.539059 -66.653839
v -32.533508 -15.445524 -66.671371
v -32.533508 -15.369527 -66.659683
v -32.533508 -15.340297 -66.776604
v -32.533508 -15.293530 -66.870140
v -32.533508 -15.240916 -66.905212
v -32.533508 -15.147381 -66.916908
v -32.533508 -15.100613 -66.905212
v -32.533508 -15.100613 -67.104675
v 46.423691 -16.907009 -67.104675
v 46.423691 -16.907009 -66.279701
v 46.423691 -17.661137 -66.279701
v 46.423691 -17.661137 -67.104675
v 46.423691 -16.760860 -66.443382
v 46.423691 -16.597176 -66.531075
v 46.423691 -16.445181 -66.595383
v 46.423691 -16.234726 -66.647995
v 46.423691 -16.035965 -66.694763
v 46.423691 -15.936584 -66.700607
v 46.423691 -15.924891 -66.624611
v 46.423691 -15.883970 -66.542763
v 46.423691 -15.813819 -66.472618
v 46.423691 -15.720284 -66.460922
v 46.423691 -15.626748 -66.496002
v 46.423691 -15.562443 -66.571999
v 46.423691 -15.539060 -66.653839
v 46.423691 -15.445524 -66.671379
v 46.423691 -15.369527 -66.659683
v 46.423691 -15.340297 -66.776604
v 46.423691 -15.293530 -66.870140
v 46.423691 -15.240916 -66.905212
v 46.423691 -15.147381 -66.916908
v 46.423691 -15.100613 -66.905212
v 46.423691 -15.100613 -67.104675
v -32.522881 -16.907009 52.916946
v -31.697906 -16.907009 52.916946
v -31.697906 -17.661137 52.916946
v -32.522881 -17.661137 52.916946
v -31.861591 -16.760860 52.916946
v -31.949280 -16.597174 52.916946
v -32.013584 -16.445179 52.916946
v -32.066200 -16.234726 52.916946
v -32.112965 -16.035963 52.916946
v -32.118813 -15.936583 52.916946
v -32.042816 -15.924891 52.916946
v -31.960972 -15.883969 52.916946
v -31.890823 -15.813818 52.916946
v -31.879128 -15.720284 52.916946
v -31.914204 -15.626748 52.916946
v -31.990204 -15.562443 52.916946
v -32.072044 -15.539059 52.916946
v -32.089584 -15.445523 52.916946
v -32.077888 -15.369527 52.916946
v -32.194809 -15.340297 52.916946
v -32.288345 -15.293530 52.916946
v -32.323418 -15.240915 52.916946
v -32.335114 -15.147381 52.916946
v -32.323418 -15.100613 52.916946
v -32.522881 -15.100613 52.916946
v -32.522881 -16.907009 -67.096161
v -31.697903 -16.907009 -67.096161
v -31.697903 -17.661137 -67.096161
v -32.522881 -17.661137 -67.096161
v -31.861591 -16.760860 -67.096161
v -31.949280 -16.597174 -67.096161
v -32.013584 -16.445179 -67.096161
v -32.066196 -16.234726 -67.096161
v -32.112965 -16.035963 -67.096161
v -32.118809 -15.936583 -67.096161
v -32.042816 -15.924891 -67.096161
v -31.960972 -15.883969 -67.096161
v -31.890816 -15.813818 -67.096161
v -31.879128 -15.720284 -67.096161
v -31.914204 -15.626748 -67.096161
v -31.990204 -15.562443 -67.096161
v -32.072044 -15.539059 -67.096161
v -32.089584 -15.445523 -67.096161
v -32.077888 -15.369527 -67.096161
v -32.194809 -15.340297 -67.096161
v -32.288345 -15.293530 -67.096161
v -32.323418 -15.240915 -67.096161
v -32.335114 -15.147381 -67.096161
v -32.323418 -15.100613 -67.096161
v -32.522881 -15.100613 -67.096161
v 46.418941 -16.907013 -66.990891
v 45.593964 -16.907013 -66.990891
v 45.593964 -17.661139 -66.990891
v 46.418941 -17.661139 -66.990891
v 45.757648 -16.760864 -66.990891
v 45.845337 -16.597178 -66.990891
v 45.909645 -16.445183 -66.990891
v 45.962257 -16.234730 -66.990891
v 46.009026 -16.035967 -66.990891
v 46.014870 -15.936586 -66.990891
v 45.938873 -15.924894 -66.990891
v 45.857033 -15.883973 -66.990891
v 45.786880 -15.813822 -66.990891
v 45.775185 -15.720286 -66.990891
v 45.810265 -15.626752 -66.990891
v 45.886261 -15.562446 -66.990891
v 45.968102 -15.539062 -66.990891
v 45.985641 -15.445527 -66.990891
v 45.973946 -15.369530 -66.990891
v 46.090866 -15.340301 -66.990891
v 46.184402 -15.293532 -66.990891
v 46.219475 -15.240919 -66.990891
v 46.231171 -15.147385 -66.990891
v 46.219475 -15.100616 -66.990891
v 46.418941 -15.100616 -66.990891
v 46.418922 -16.907013 53.022209
v 45.593945 -16.907013 53.022209
v 45.593945 -17.661139 53.022209
v 46.418922 -17.661139 53.022209
v 45.757629 -16.760864 53.022209
v 45.845322 -16.597178 53.022209
v 45.909626 -16.445183 53.022209
v 45.962238 -16.234730 53.022209
v 46.009007 -16.035967 53.022209
v 46.014854 -15.936586 53.022209
v 45.938854 -15.924894 53.022209
v 45.857010 -15.883973 53.022209
v 45.786861 -15.813822 53.022209
v 45.775169 -15.720286 53.022209
v 45.810246 -15.626752 53.022209
v 45.886242 -15.562446 53.022209
v 45.968086 -15.539062 53.022209
v 45.985622 -15.445527 53.022209
v 45.973930 -15.369530 53.022209
v 46.090851 -15.340301 53.022209
v 46.184387 -15.293532 53.022209
v 46.219460 -15.240919 53.022209
v 46.231155 -15.147385 53.022209
v 46.219460 -15.100616 53.022209
v 46.418922 -15.100616 53.022209
v 46.357956 -16.907009 53.028893
v 46.357956 -16.907009 52.203911
v 46.357956 -17.661137 52.203911
v 46.357956 -17.661137 53.028893
v 46.357956 -16.760860 52.367607
v 46.357956 -16.597174 52.455292
v 46.357956 -16.445179 52.519592
v 46.357956 -16.234726 52.572205
v 46.357956 -16.035963 52.618980
v 46.357956 -15.936583 52.624817
v 46.357956 -15.924891 52.548828
v 46.357956 -15.883969 52.466980
v 46.357956 -15.813818 52.396828
v 46.357956 -15.720284 52.385139
v 46.357956 -15.626748 52.420219
v 46.357956 -15.562443 52.496216
v 46.357956 -15.539059 52.578056
v 46.357956 -15.445523 52.595589
v 46.357956 -15.369527 52.583900
v 46.357956 -15.340297 52.700813
v 46.357956 -15.293530 52.794350
v 46.357956 -15.240915 52.829430
v 46.357956 -15.147381 52.841125
v 46.357956 -15.100613 52.829430
v 46.357956 -15.100613 53.028893
v -32.599247 -16.907009 53.028908
v -32.599247 -16.907009 52.203926
v -32.599247 -17.661137 52.203926
v -32.599247 -17.661137 53.028908
v -32.599247 -16.760860 52.367615
v -32.599247 -16.597174 52.455299
v -32.599247 -16.445179 52.519608
v -32.599247 -16.234726 52.572220
v -32.599247 -16.035963 52.618988
v -32.599247 -15.936583 52.624832
v -32.599247 -15.924891 52.548836
v -32.599247 -15.883969 52.466988
v -32.599247 -15.813818 52.396843
v -32.599247 -15.720284 52.385155
v -32.599247 -15.626748 52.420227
v -32.599247 -15.562443 52.496223
v -32.599247 -15.539059 52.578064
v -32.599247 -15.445523 52.595604
v -32.599247 -15.369527 52.583916
v -32.599247 -15.340297 52.700836
v -32.599247 -15.293530 52.794373
v -32.599247 -15.240915 52.829445
v -32.599247 -15.147381 52.841133
v -32.599247 -15.100613 52.829445
v -32.599247 -15.100613 53.028908
vn -1.0000 -0.0000 -0.0000
vn -1.0000 -0.0000 -0.0002
vn 1.0000 -0.0000 -0.0000
vn 1.0000 -0.0000 -0.0001
vn 1.0000 -0.0000 0.0001
vn -0.0000 0.2290 0.9734
vn -0.0000 -0.2425 0.9701
vn -0.0000 -0.0000 1.0000
vn -0.0000 0.9615 0.2747
vn -0.0000 0.0587 0.9983
vn -0.0000 -0.0000 -1.0000
vn -0.0000 0.1843 0.9829
vn -0.0000 -0.9884 0.1521
vn -0.0000 1.0000 -0.0000
vn -0.0000 -1.0000 -0.0000
vn -0.0000 -0.1521 0.9884
vn -0.0000 -0.8944 0.4472
vn -0.0000 0.7459 0.6660
vn -0.0000 0.9701 0.2425
vn -0.0000 -0.7071 0.7071
vn -0.0000 0.4722 0.8815
vn -0.0000 0.8944 0.4472
vn -0.0000 -0.1240 0.9923
vn -0.0000 0.3896 0.9210
vn -0.0000 0.5547 0.8320
vn -0.0000 0.3511 0.9363
vn -0.0000 0.2425 0.9701
vn -0.0000 0.1240 0.9923
vn -0.0000 0.7634 0.6459
vn -0.0000 -0.0001 1.0000
vn -0.0000 0.0001 1.0000
vn -0.0000 0.0010 1.0000
vn 0.9734 0.2290 -0.0000
vn 0.9701 -0.2426 -0.0000
vn 0.2747 0.9615 -0.0000
vn 0.9983 0.0587 -0.0000
vn 0.9829 0.1843 -0.0000
vn 0.1521 -0.9884 -0.0000
vn 0.9884 -0.1521 -0.0000
vn 0.4472 -0.8944 -0.0000
vn 0.6660 0.7459 -0.0000
vn 0.2425 0.9701 -0.0000
vn 0.7071 -0.7071 -0.0000
vn 0.8815 0.4722 -0.0000
vn 0.4472 0.8944 -0.0000
vn 0.9923 -0.1240 -0.0000
vn 0.9210 0.3896 -0.0000
vn 0.8321 0.5547 -0.0000
vn 0.9363 0.3511 -0.0000
vn 0.9701 0.2425 -0.0000
vn 0.9923 0.1240 -0.0000
vn 0.6459 0.7634 -0.0000
vn -0.9734 0.2290 -0.0000
vn -0.9701 -0.2426 -0.0000
vn -0.2747 0.9615 -0.0000
vn -0.9983 0.0587 -0.0000
vn -0.9829 0.1843 -0.0000
vn -0.1521 -0.9884 -0.0000
vn -0.9884 -0.1520 -0.0000
vn -0.4472 -0.8944 -0.0000
vn -0.6660 0.7459 -0.0000
vn -0.2425 0.9701 -0.0000
vn -0.7071 -0.7071 -0.0000
vn -0.8815 0.4722 -0.0000
vn -0.4472 0.8944 -0.0000
vn -0.9923 -0.1240 -0.0000
vn -0.9210 0.3896 -0.0000
vn -0.8321 0.5547 -0.0000
vn -0.9363 0.3511 -0.0000
vn -0.9701 0.2425 -0.0000
vn -0.9923 0.1240 -0.0000
vn -0.6459 0.7634 -0.0000
vn -1.0000 -0.0000 0.0002
vn -1.0000 -0.0000 0.0001
vn -0.0000 0.2291 -0.9734
vn -0.0000 -0.2426 -0.9701
vn -0.0000 0.9615 -0.2747
vn -0.0000 0.0587 -0.9983
vn -0.0000 0.1841 -0.9829
vn -0.0000 -0.9884 -0.1521
vn -0.0000 -0.1519 -0.9884
vn -0.0000 -0.8944 -0.4472
vn -0.0000 0.7460 -0.6660
vn -0.0000 0.9701 -0.2425
vn -0.0000 -0.7071 -0.7071
vn -0.0000 0.4722 -0.8815
vn -0.0000 0.8944 -0.4472
vn -0.0000 -0.1241 -0.9923
vn -0.0000 0.3897 -0.9209
vn -0.0000 0.5547 -0.8320
vn -0.0000 0.3511 -0.9364
vn -0.0000 0.2425 -0.9701
vn -0.0000 0.1241 -0.9923
vn -0.0000 0.7634 -0.6459
vt 0.000000 0.000000
s 0
f 3/1/1 1/1/1 4/1/1
f 14/1/1 15/1/1 12/1/1
f 3/1/1 2/1/1 1/1/1
f 1/1/1 2/1/1 5/1/1
f 1/1/1 5/1/1 6/1/1
f 23/1/1 24/1/1 25/1/1
f 22/1/1 23/1/1 25/1/1
f 1/1/1 6/1/1 7/1/1
f 1/1/1 7/1/1 8/1/1
f 22/1/1 25/1/1 21/1/1
f 25/1/1 1/1/1 10/1/1
f 21/1/1 25/1/1 10/1/1
f 1/1/1 8/1/1 9/1/1
f 10/1/1 11/1/1 17/1/1
f 11/1/1 12/1/1 17/1/1
f 1/1/2 9/1/2 10/1/2
f 20/1/1 21/1/1 17/1/1
f 18/1/1 19/1/1 20/1/1
f 15/1/1 16/1/1 12/1/1
f 16/1/1 17/1/1 12/1/1
f 17/1/2 18/1/2 20/1/2
f 21/1/1 10/1/1 17/1/1
f 12/1/1 13/1/1 14/1/1
f 28/1/3 29/1/3 26/1/3
f 39/1/3 37/1/3 40/1/3
f 28/1/3 26/1/3 27/1/3
f 26/1/3 30/1/3 27/1/3
f 26/1/3 31/1/3 30/1/3
f 48/1/3 50/1/3 49/1/3
f 47/1/3 50/1/3 48/1/3
f 26/1/3 32/1/3 31/1/3
f 26/1/3 33/1/3 32/1/3
f 47/1/3 46/1/3 50/1/3
f 50/1/3 35/1/3 26/1/3
f 46/1/3 35/1/3 50/1/3
f 26/1/3 34/1/3 33/1/3
f 35/1/3 42/1/3 36/1/3
f 36/1/3 42/1/3 37/1/3
f 26/1/3 35/1/3 34/1/3
f 45/1/3 42/1/3 46/1/3
f 43/1/3 45/1/3 44/1/3
f 40/1/4 37/1/4 41/1/4
f 41/1/5 37/1/5 42/1/5
f 42/1/3 45/1/3 43/1/3
f 46/1/3 42/1/3 35/1/3
f 37/1/3 39/1/3 38/1/3
f 8/1/6 33/1/6 34/1/6 9/1/6
f 23/1/7 48/1/7 49/1/7 24/1/7
f 3/1/8 28/1/8 27/1/8 2/1/8
f 16/1/9 41/1/9 42/1/9 17/1/9
f 9/1/10 34/1/10 35/1/10 10/1/10
f 25/1/11 50/1/11 26/1/11 1/1/11
f 17/1/12 42/1/12 43/1/12 18/1/12
f 10/1/13 35/1/13 36/1/13 11/1/13
f 24/1/14 49/1/14 50/1/14 25/1/14
f 4/1/15 29/1/15 28/1/15 3/1/15
f 18/1/16 43/1/16 44/1/16 19/1/16
f 11/1/17 36/1/17 37/1/17 12/1/17
f 2/1/18 27/1/18 30/1/18 5/1/18
f 19/1/19 44/1/19 45/1/19 20/1/19
f 12/1/20 37/1/20 38/1/20 13/1/20
f 5/1/21 30/1/21 31/1/21 6/1/21
f 20/1/22 45/1/22 46/1/22 21/1/22
f 13/1/23 38/1/23 39/1/23 14/1/23
f 6/1/24 31/1/24 32/1/24 7/1/24
f 21/1/25 46/1/25 47/1/25 22/1/25
f 14/1/26 39/1/26 40/1/26 15/1/26
f 7/1/27 32/1/27 33/1/27 8/1/27
f 22/1/28 47/1/28 48/1/28 23/1/28
f 1/1/11 26/1/11 29/1/11 4/1/11
f 15/1/29 40/1/29 41/1/29 16/1/29
f 53/1/8 51/1/8 54/1/8
f 64/1/30 65/1/30 62/1/30
f 53/1/8 52/1/8 51/1/8
f 51/1/30 52/1/30 55/1/30
f 51/1/31 55/1/31 56/1/31
f 73/1/8 74/1/8 75/1/8
f 72/1/8 73/1/8 75/1/8
f 51/1/8 56/1/8 57/1/8
f 51/1/8 57/1/8 58/1/8
f 72/1/32 75/1/32 71/1/32
f 75/1/8 51/1/8 60/1/8
f 71/1/8 75/1/8 60/1/8
f 51/1/8 58/1/8 59/1/8
f 60/1/8 61/1/8 67/1/8
f 61/1/8 62/1/8 67/1/8
f 51/1/31 59/1/31 60/1/31
f 70/1/8 71/1/8 67/1/8
f 68/1/8 69/1/8 70/1/8
f 65/1/8 66/1/8 62/1/8
f 66/1/8 67/1/8 62/1/8
f 67/1/8 68/1/8 70/1/8
f 71/1/8 60/1/8 67/1/8
f 62/1/31 63/1/31 64/1/31
f 78/1/11 79/1/11 76/1/11
f 89/1/11 87/1/11 90/1/11
f 78/1/11 76/1/11 77/1/11
f 76/1/11 80/1/11 77/1/11
f 76/1/11 81/1/11 80/1/11
f 98/1/11 100/1/11 99/1/11
f 97/1/11 100/1/11 98/1/11
f 76/1/11 82/1/11 81/1/11
f 76/1/11 83/1/11 82/1/11
f 97/1/11 96/1/11 100/1/11
f 100/1/11 85/1/11 76/1/11
f 96/1/11 85/1/11 100/1/11
f 76/1/11 84/1/11 83/1/11
f 85/1/11 92/1/11 86/1/11
f 86/1/11 92/1/11 87/1/11
f 76/1/11 85/1/11 84/1/11
f 95/1/11 92/1/11 96/1/11
f 93/1/11 95/1/11 94/1/11
f 90/1/11 87/1/11 91/1/11
f 91/1/11 87/1/11 92/1/11
f 92/1/11 95/1/11 93/1/11
f 96/1/11 92/1/11 85/1/11
f 87/1/11 89/1/11 88/1/11
f 58/1/33 83/1/33 84/1/33 59/1/33
f 73/1/34 98/1/34 99/1/34 74/1/34
f 53/1/3 78/1/3 77/1/3 52/1/3
f 66/1/35 91/1/35 92/1/35 67/1/35
f 59/1/36 84/1/36 85/1/36 60/1/36
f 75/1/1 100/1/1 76/1/1 51/1/1
f 67/1/37 92/1/37 93/1/37 68/1/37
f 60/1/38 85/1/38 86/1/38 61/1/38
f 74/1/14 99/1/14 100/1/14 75/1/14
f 54/1/15 79/1/15 78/1/15 53/1/15
f 68/1/39 93/1/39 94/1/39 69/1/39
f 61/1/40 86/1/40 87/1/40 62/1/40
f 52/1/41 77/1/41 80/1/41 55/1/41
f 69/1/42 94/1/42 95/1/42 70/1/42
f 62/1/43 87/1/43 88/1/43 63/1/43
f 55/1/44 80/1/44 81/1/44 56/1/44
f 70/1/45 95/1/45 96/1/45 71/1/45
f 63/1/46 88/1/46 89/1/46 64/1/46
f 56/1/47 81/1/47 82/1/47 57/1/47
f 71/1/48 96/1/48 97/1/48 72/1/48
f 64/1/49 89/1/49 90/1/49 65/1/49
f 57/1/50 82/1/50 83/1/50 58/1/50
f 72/1/51 97/1/51 98/1/51 73/1/51
f 51/1/1 76/1/1 79/1/1 54/1/1
f 65/1/52 90/1/52 91/1/52 66/1/52
f 103/1/11 101/1/11 104/1/11
f 114/1/11 115/1/11 112/1/11
f 103/1/11 102/1/11 101/1/11
f 101/1/11 102/1/11 105/1/11
f 101/1/11 105/1/11 106/1/11
f 123/1/11 124/1/11 125/1/11
f 122/1/11 123/1/11 125/1/11
f 101/1/11 106/1/11 107/1/11
f 101/1/11 107/1/11 108/1/11
f 122/1/11 125/1/11 121/1/11
f 125/1/11 101/1/11 110/1/11
f 121/1/11 125/1/11 110/1/11
f 101/1/11 108/1/11 109/1/11
f 110/1/11 111/1/11 117/1/11
f 111/1/11 112/1/11 117/1/11
f 101/1/11 109/1/11 110/1/11
f 120/1/11 121/1/11 117/1/11
f 118/1/11 119/1/11 120/1/11
f 115/1/11 116/1/11 112/1/11
f 116/1/11 117/1/11 112/1/11
f 117/1/11 118/1/11 120/1/11
f 121/1/11 110/1/11 117/1/11
f 112/1/11 113/1/11 114/1/11
f 128/1/8 129/1/8 126/1/8
f 139/1/8 137/1/8 140/1/8
f 128/1/8 126/1/8 127/1/8
f 126/1/30 130/1/30 127/1/30
f 126/1/30 131/1/30 130/1/30
f 148/1/8 150/1/8 149/1/8
f 147/1/8 150/1/8 148/1/8
f 126/1/8 132/1/8 131/1/8
f 126/1/31 133/1/31 132/1/31
f 147/1/8 146/1/8 150/1/8
f 150/1/8 135/1/8 126/1/8
f 146/1/31 135/1/31 150/1/31
f 126/1/8 134/1/8 133/1/8
f 135/1/8 142/1/8 136/1/8
f 136/1/8 142/1/8 137/1/8
f 126/1/30 135/1/30 134/1/30
f 145/1/8 142/1/8 146/1/8
f 143/1/8 145/1/8 144/1/8
f 140/1/8 137/1/8 141/1/8
f 141/1/8 137/1/8 142/1/8
f 142/1/8 145/1/8 143/1/8
f 146/1/8 142/1/8 135/1/8
f 137/1/30 139/1/30 138/1/30
f 108/1/53 133/1/53 134/1/53 109/1/53
f 123/1/54 148/1/54 149/1/54 124/1/54
f 103/1/1 128/1/1 127/1/1 102/1/1
f 116/1/55 141/1/55 142/1/55 117/1/55
f 109/1/56 134/1/56 135/1/56 110/1/56
f 125/1/3 150/1/3 126/1/3 101/1/3
f 117/1/57 142/1/57 143/1/57 118/1/57
f 110/1/58 135/1/58 136/1/58 111/1/58
f 124/1/14 149/1/14 150/1/14 125/1/14
f 104/1/15 129/1/15 128/1/15 103/1/15
f 118/1/59 143/1/59 144/1/59 119/1/59
f 111/1/60 136/1/60 137/1/60 112/1/60
f 102/1/61 127/1/61 130/1/61 105/1/61
f 119/1/62 144/1/62 145/1/62 120/1/62
f 112/1/63 137/1/63 138/1/63 113/1/63
f 105/1/64 130/1/64 131/1/64 106/1/64
f 120/1/65 145/1/65 146/1/65 121/1/65
f 113/1/66 138/1/66 139/1/66 114/1/66
f 106/1/67 131/1/67 132/1/67 107/1/67
f 121/1/68 146/1/68 147/1/68 122/1/68
f 114/1/69 139/1/69 140/1/69 115/1/69
f 107/1/70 132/1/70 133/1/70 108/1/70
f 122/1/71 147/1/71 148/1/71 123/1/71
f 101/1/3 126/1/3 129/1/3 104/1/3
f 115/1/72 140/1/72 141/1/72 116/1/72
f 153/1/3 151/1/3 154/1/3
f 164/1/3 165/1/3 162/1/3
f 153/1/3 152/1/3 151/1/3
f 151/1/3 152/1/3 155/1/3
f 151/1/3 155/1/3 156/1/3
f 173/1/3 174/1/3 175/1/3
f 172/1/3 173/1/3 175/1/3
f 151/1/3 156/1/3 157/1/3
f 151/1/3 157/1/3 158/1/3
f 172/1/3 175/1/3 171/1/3
f 175/1/3 151/1/3 160/1/3
f 171/1/3 175/1/3 160/1/3
f 151/1/3 158/1/3 159/1/3
f 160/1/3 161/1/3 167/1/3
f 161/1/3 162/1/3 167/1/3
f 151/1/3 159/1/3 160/1/3
f 170/1/3 171/1/3 167/1/3
f 168/1/3 169/1/3 170/1/3
f 165/1/5 166/1/5 162/1/5
f 166/1/4 167/1/4 162/1/4
f 167/1/3 168/1/3 170/1/3
f 171/1/3 160/1/3 167/1/3
f 162/1/4 163/1/4 164/1/4
f 178/1/1 179/1/1 176/1/1
f 189/1/1 187/1/1 190/1/1
f 178/1/1 176/1/1 177/1/1
f 176/1/1 180/1/1 177/1/1
f 176/1/1 181/1/1 180/1/1
f 198/1/1 200/1/1 199/1/1
f 197/1/1 200/1/1 198/1/1
f 176/1/1 182/1/1 181/1/1
f 176/1/1 183/1/1 182/1/1
f 197/1/1 196/1/1 200/1/1
f 200/1/1 185/1/1 176/1/1
f 196/1/1 185/1/1 200/1/1
f 176/1/1 184/1/1 183/1/1
f 185/1/1 192/1/1 186/1/1
f 186/1/1 192/1/1 187/1/1
f 176/1/73 185/1/73 184/1/73
f 195/1/1 192/1/1 196/1/1
f 193/1/1 195/1/1 194/1/1
f 190/1/74 187/1/74 191/1/74
f 191/1/2 187/1/2 192/1/2
f 192/1/74 195/1/74 193/1/74
f 196/1/1 192/1/1 185/1/1
f 187/1/1 189/1/1 188/1/1
f 158/1/75 183/1/75 184/1/75 159/1/75
f 173/1/76 198/1/76 199/1/76 174/1/76
f 153/1/11 178/1/11 177/1/11 152/1/11
f 166/1/77 191/1/77 192/1/77 167/1/77
f 159/1/78 184/1/78 185/1/78 160/1/78
f 175/1/8 200/1/8 176/1/8 151/1/8
f 167/1/79 192/1/79 193/1/79 168/1/79
f 160/1/80 185/1/80 186/1/80 161/1/80
f 174/1/14 199/1/14 200/1/14 175/1/14
f 154/1/15 179/1/15 178/1/15 153/1/15
f 168/1/81 193/1/81 194/1/81 169/1/81
f 161/1/82 186/1/82 187/1/82 162/1/82
f 152/1/83 177/1/83 180/1/83 155/1/83
f 169/1/84 194/1/84 195/1/84 170/1/84
f 162/1/85 187/1/85 188/1/85 163/1/85
f 155/1/86 180/1/86 181/1/86 156/1/86
f 170/1/87 195/1/87 196/1/87 171/1/87
f 163/1/88 188/1/88 189/1/88 164/1/88
f 156/1/89 181/1/89 182/1/89 157/1/89
f 171/1/90 196/1/90 197/1/90 172/1/90
f 164/1/91 189/1/91 190/1/91 165/1/91
f 157/1/92 182/1/92 183/1/92 158/1/92
f 172/1/93 197/1/93 198/1/93 173/1/93
f 151/1/8 176/1/8 179/1/8 154/1/8
f 165/1/94 190/1/94 191/1/94 166/1/94
